<?xml version="1.0" encoding="UTF-8"?>
<svg xmlns="http://www.w3.org/2000/svg" viewBox="0 0 980 260" role="img" aria-labelledby="colapis-mono-white-title colapis-mono-white-desc">
  <title id="colapis-mono-white-title">COLAPIS horizontal logo</title>
  <desc id="colapis-mono-white-desc">Horizontal lockup with an abstract vessel mark and editorial wordmark.</desc>
  <rect width="980" height="260" rx="0" fill="#000000"/>
  <g transform="translate(84 30) scale(.84)">
    
  <title id="colapis-mono-white-inner-title">Abstract lapis mark</title>
  <desc id="colapis-mono-white-inner-desc">Two quiet organic stone forms with a restrained mesh texture.</desc>
  <defs>
    <clipPath id="colapis-mono-white-inner-stoneClip">
      <path d="M48 79C66 45 116 37 164 50C199 60 219 83 211 111C202 143 154 159 102 149C62 141 35 115 48 79Z"/>
    </clipPath>
    <clipPath id="colapis-mono-white-inner-baseClip">
      <path d="M71 169C96 150 144 147 174 163C200 177 196 205 166 215C132 226 75 219 57 197C48 186 55 177 71 169Z"/>
    </clipPath>
  </defs>
  <rect width="240" height="240" fill="none"/>
  <path fill="#ffffff" d="M48 79C66 45 116 37 164 50C199 60 219 83 211 111C202 143 154 159 102 149C62 141 35 115 48 79Z"/>
  <path fill="#000000" opacity="0.9" d="M77 112C101 87 148 81 185 96C158 102 126 116 99 136C89 130 81 121 77 112Z"/>
  <g clip-path="url(#colapis-mono-white-inner-stoneClip)" opacity="0.5">
    <g fill="#000000">
      <circle cx="45.0" cy="53.0" r="1.2"/>
      <circle cx="52.0" cy="53.0" r="1.2"/>
      <circle cx="59.0" cy="53.0" r="1.2"/>
      <circle cx="66.0" cy="53.0" r="1.2"/>
      <circle cx="73.0" cy="53.0" r="1.2"/>
      <circle cx="80.0" cy="53.0" r="1.2"/>
      <circle cx="87.0" cy="53.0" r="1.2"/>
      <circle cx="94.0" cy="53.0" r="1.2"/>
      <circle cx="101.0" cy="53.0" r="1.2"/>
      <circle cx="108.0" cy="53.0" r="1.2"/>
      <circle cx="115.0" cy="53.0" r="1.2"/>
      <circle cx="122.0" cy="53.0" r="1.2"/>
      <circle cx="129.0" cy="53.0" r="1.2"/>
      <circle cx="136.0" cy="53.0" r="1.2"/>
      <circle cx="143.0" cy="53.0" r="1.2"/>
      <circle cx="150.0" cy="53.0" r="1.2"/>
      <circle cx="157.0" cy="53.0" r="1.2"/>
      <circle cx="164.0" cy="53.0" r="1.2"/>
      <circle cx="171.0" cy="53.0" r="1.2"/>
      <circle cx="178.0" cy="53.0" r="1.2"/>
      <circle cx="185.0" cy="53.0" r="1.2"/>
      <circle cx="192.0" cy="53.0" r="1.2"/>
      <circle cx="199.0" cy="53.0" r="1.2"/>
      <circle cx="206.0" cy="53.0" r="1.2"/>
      <circle cx="213.0" cy="53.0" r="1.2"/>
      <circle cx="48.5" cy="60.0" r="1.2"/>
      <circle cx="55.5" cy="60.0" r="1.2"/>
      <circle cx="62.5" cy="60.0" r="1.2"/>
      <circle cx="69.5" cy="60.0" r="1.2"/>
      <circle cx="76.5" cy="60.0" r="1.2"/>
      <circle cx="83.5" cy="60.0" r="1.2"/>
      <circle cx="90.5" cy="60.0" r="1.2"/>
      <circle cx="97.5" cy="60.0" r="1.2"/>
      <circle cx="104.5" cy="60.0" r="1.2"/>
      <circle cx="111.5" cy="60.0" r="1.2"/>
      <circle cx="118.5" cy="60.0" r="1.2"/>
      <circle cx="125.5" cy="60.0" r="1.2"/>
      <circle cx="132.5" cy="60.0" r="1.2"/>
      <circle cx="139.5" cy="60.0" r="1.2"/>
      <circle cx="146.5" cy="60.0" r="1.2"/>
      <circle cx="153.5" cy="60.0" r="1.2"/>
      <circle cx="160.5" cy="60.0" r="1.2"/>
      <circle cx="167.5" cy="60.0" r="1.2"/>
      <circle cx="174.5" cy="60.0" r="1.2"/>
      <circle cx="181.5" cy="60.0" r="1.2"/>
      <circle cx="188.5" cy="60.0" r="1.2"/>
      <circle cx="195.5" cy="60.0" r="1.2"/>
      <circle cx="202.5" cy="60.0" r="1.2"/>
      <circle cx="209.5" cy="60.0" r="1.2"/>
      <circle cx="216.5" cy="60.0" r="1.2"/>
      <circle cx="45.0" cy="67.0" r="1.2"/>
      <circle cx="52.0" cy="67.0" r="1.2"/>
      <circle cx="59.0" cy="67.0" r="1.2"/>
      <circle cx="66.0" cy="67.0" r="1.2"/>
      <circle cx="73.0" cy="67.0" r="1.2"/>
      <circle cx="80.0" cy="67.0" r="1.2"/>
      <circle cx="87.0" cy="67.0" r="1.2"/>
      <circle cx="94.0" cy="67.0" r="1.2"/>
      <circle cx="101.0" cy="67.0" r="1.2"/>
      <circle cx="108.0" cy="67.0" r="1.2"/>
      <circle cx="115.0" cy="67.0" r="1.2"/>
      <circle cx="122.0" cy="67.0" r="1.2"/>
      <circle cx="129.0" cy="67.0" r="1.2"/>
      <circle cx="136.0" cy="67.0" r="1.2"/>
      <circle cx="143.0" cy="67.0" r="1.2"/>
      <circle cx="150.0" cy="67.0" r="1.2"/>
      <circle cx="157.0" cy="67.0" r="1.2"/>
      <circle cx="164.0" cy="67.0" r="1.2"/>
      <circle cx="171.0" cy="67.0" r="1.2"/>
      <circle cx="178.0" cy="67.0" r="1.2"/>
      <circle cx="185.0" cy="67.0" r="1.2"/>
      <circle cx="192.0" cy="67.0" r="1.2"/>
      <circle cx="199.0" cy="67.0" r="1.2"/>
      <circle cx="206.0" cy="67.0" r="1.2"/>
      <circle cx="213.0" cy="67.0" r="1.2"/>
      <circle cx="48.5" cy="74.0" r="1.2"/>
      <circle cx="55.5" cy="74.0" r="1.2"/>
      <circle cx="62.5" cy="74.0" r="1.2"/>
      <circle cx="69.5" cy="74.0" r="1.2"/>
      <circle cx="76.5" cy="74.0" r="1.2"/>
      <circle cx="83.5" cy="74.0" r="1.2"/>
      <circle cx="90.5" cy="74.0" r="1.2"/>
      <circle cx="97.5" cy="74.0" r="1.2"/>
      <circle cx="104.5" cy="74.0" r="1.2"/>
      <circle cx="111.5" cy="74.0" r="1.2"/>
      <circle cx="118.5" cy="74.0" r="1.2"/>
      <circle cx="125.5" cy="74.0" r="1.2"/>
      <circle cx="132.5" cy="74.0" r="1.2"/>
      <circle cx="139.5" cy="74.0" r="1.2"/>
      <circle cx="146.5" cy="74.0" r="1.2"/>
      <circle cx="153.5" cy="74.0" r="1.2"/>
      <circle cx="160.5" cy="74.0" r="1.2"/>
      <circle cx="167.5" cy="74.0" r="1.2"/>
      <circle cx="174.5" cy="74.0" r="1.2"/>
      <circle cx="181.5" cy="74.0" r="1.2"/>
      <circle cx="188.5" cy="74.0" r="1.2"/>
      <circle cx="195.5" cy="74.0" r="1.2"/>
      <circle cx="202.5" cy="74.0" r="1.2"/>
      <circle cx="209.5" cy="74.0" r="1.2"/>
      <circle cx="216.5" cy="74.0" r="1.2"/>
      <circle cx="45.0" cy="81.0" r="1.2"/>
      <circle cx="52.0" cy="81.0" r="1.2"/>
      <circle cx="59.0" cy="81.0" r="1.2"/>
      <circle cx="66.0" cy="81.0" r="1.2"/>
      <circle cx="73.0" cy="81.0" r="1.2"/>
      <circle cx="80.0" cy="81.0" r="1.2"/>
      <circle cx="87.0" cy="81.0" r="1.2"/>
      <circle cx="94.0" cy="81.0" r="1.2"/>
      <circle cx="101.0" cy="81.0" r="1.2"/>
      <circle cx="108.0" cy="81.0" r="1.2"/>
      <circle cx="115.0" cy="81.0" r="1.2"/>
      <circle cx="122.0" cy="81.0" r="1.2"/>
      <circle cx="129.0" cy="81.0" r="1.2"/>
      <circle cx="136.0" cy="81.0" r="1.2"/>
      <circle cx="143.0" cy="81.0" r="1.2"/>
      <circle cx="150.0" cy="81.0" r="1.2"/>
      <circle cx="157.0" cy="81.0" r="1.2"/>
      <circle cx="164.0" cy="81.0" r="1.2"/>
      <circle cx="171.0" cy="81.0" r="1.2"/>
      <circle cx="178.0" cy="81.0" r="1.2"/>
      <circle cx="185.0" cy="81.0" r="1.2"/>
      <circle cx="192.0" cy="81.0" r="1.2"/>
      <circle cx="199.0" cy="81.0" r="1.2"/>
      <circle cx="206.0" cy="81.0" r="1.2"/>
      <circle cx="213.0" cy="81.0" r="1.2"/>
      <circle cx="48.5" cy="88.0" r="1.2"/>
      <circle cx="55.5" cy="88.0" r="1.2"/>
      <circle cx="62.5" cy="88.0" r="1.2"/>
      <circle cx="69.5" cy="88.0" r="1.2"/>
      <circle cx="76.5" cy="88.0" r="1.2"/>
      <circle cx="83.5" cy="88.0" r="1.2"/>
      <circle cx="90.5" cy="88.0" r="1.2"/>
      <circle cx="97.5" cy="88.0" r="1.2"/>
      <circle cx="104.5" cy="88.0" r="1.2"/>
      <circle cx="111.5" cy="88.0" r="1.2"/>
      <circle cx="118.5" cy="88.0" r="1.2"/>
      <circle cx="125.5" cy="88.0" r="1.2"/>
      <circle cx="132.5" cy="88.0" r="1.2"/>
      <circle cx="139.5" cy="88.0" r="1.2"/>
      <circle cx="146.5" cy="88.0" r="1.2"/>
      <circle cx="153.5" cy="88.0" r="1.2"/>
      <circle cx="160.5" cy="88.0" r="1.2"/>
      <circle cx="167.5" cy="88.0" r="1.2"/>
      <circle cx="174.5" cy="88.0" r="1.2"/>
      <circle cx="181.5" cy="88.0" r="1.2"/>
      <circle cx="188.5" cy="88.0" r="1.2"/>
      <circle cx="195.5" cy="88.0" r="1.2"/>
      <circle cx="202.5" cy="88.0" r="1.2"/>
      <circle cx="209.5" cy="88.0" r="1.2"/>
      <circle cx="216.5" cy="88.0" r="1.2"/>
      <circle cx="45.0" cy="95.0" r="1.2"/>
      <circle cx="52.0" cy="95.0" r="1.2"/>
      <circle cx="59.0" cy="95.0" r="1.2"/>
      <circle cx="66.0" cy="95.0" r="1.2"/>
      <circle cx="73.0" cy="95.0" r="1.2"/>
      <circle cx="80.0" cy="95.0" r="1.2"/>
      <circle cx="87.0" cy="95.0" r="1.2"/>
      <circle cx="94.0" cy="95.0" r="1.2"/>
      <circle cx="101.0" cy="95.0" r="1.2"/>
      <circle cx="108.0" cy="95.0" r="1.2"/>
      <circle cx="115.0" cy="95.0" r="1.2"/>
      <circle cx="122.0" cy="95.0" r="1.2"/>
      <circle cx="129.0" cy="95.0" r="1.2"/>
      <circle cx="136.0" cy="95.0" r="1.2"/>
      <circle cx="143.0" cy="95.0" r="1.2"/>
      <circle cx="150.0" cy="95.0" r="1.2"/>
      <circle cx="157.0" cy="95.0" r="1.2"/>
      <circle cx="164.0" cy="95.0" r="1.2"/>
      <circle cx="171.0" cy="95.0" r="1.2"/>
      <circle cx="178.0" cy="95.0" r="1.2"/>
      <circle cx="185.0" cy="95.0" r="1.2"/>
      <circle cx="192.0" cy="95.0" r="1.2"/>
      <circle cx="199.0" cy="95.0" r="1.2"/>
      <circle cx="206.0" cy="95.0" r="1.2"/>
      <circle cx="213.0" cy="95.0" r="1.2"/>
      <circle cx="48.5" cy="102.0" r="1.2"/>
      <circle cx="55.5" cy="102.0" r="1.2"/>
      <circle cx="62.5" cy="102.0" r="1.2"/>
      <circle cx="69.5" cy="102.0" r="1.2"/>
      <circle cx="76.5" cy="102.0" r="1.2"/>
      <circle cx="83.5" cy="102.0" r="1.2"/>
      <circle cx="90.5" cy="102.0" r="1.2"/>
      <circle cx="97.5" cy="102.0" r="1.2"/>
      <circle cx="104.5" cy="102.0" r="1.2"/>
      <circle cx="111.5" cy="102.0" r="1.2"/>
      <circle cx="118.5" cy="102.0" r="1.2"/>
      <circle cx="125.5" cy="102.0" r="1.2"/>
      <circle cx="132.5" cy="102.0" r="1.2"/>
      <circle cx="139.5" cy="102.0" r="1.2"/>
      <circle cx="146.5" cy="102.0" r="1.2"/>
      <circle cx="153.5" cy="102.0" r="1.2"/>
      <circle cx="160.5" cy="102.0" r="1.2"/>
      <circle cx="167.5" cy="102.0" r="1.2"/>
      <circle cx="174.5" cy="102.0" r="1.2"/>
      <circle cx="181.5" cy="102.0" r="1.2"/>
      <circle cx="188.5" cy="102.0" r="1.2"/>
      <circle cx="195.5" cy="102.0" r="1.2"/>
      <circle cx="202.5" cy="102.0" r="1.2"/>
      <circle cx="209.5" cy="102.0" r="1.2"/>
      <circle cx="216.5" cy="102.0" r="1.2"/>
      <circle cx="45.0" cy="109.0" r="1.2"/>
      <circle cx="52.0" cy="109.0" r="1.2"/>
      <circle cx="59.0" cy="109.0" r="1.2"/>
      <circle cx="66.0" cy="109.0" r="1.2"/>
      <circle cx="73.0" cy="109.0" r="1.2"/>
      <circle cx="80.0" cy="109.0" r="1.2"/>
      <circle cx="87.0" cy="109.0" r="1.2"/>
      <circle cx="94.0" cy="109.0" r="1.2"/>
      <circle cx="101.0" cy="109.0" r="1.2"/>
      <circle cx="108.0" cy="109.0" r="1.2"/>
      <circle cx="115.0" cy="109.0" r="1.2"/>
      <circle cx="122.0" cy="109.0" r="1.2"/>
      <circle cx="129.0" cy="109.0" r="1.2"/>
      <circle cx="136.0" cy="109.0" r="1.2"/>
      <circle cx="143.0" cy="109.0" r="1.2"/>
      <circle cx="150.0" cy="109.0" r="1.2"/>
      <circle cx="157.0" cy="109.0" r="1.2"/>
      <circle cx="164.0" cy="109.0" r="1.2"/>
      <circle cx="171.0" cy="109.0" r="1.2"/>
      <circle cx="178.0" cy="109.0" r="1.2"/>
      <circle cx="185.0" cy="109.0" r="1.2"/>
      <circle cx="192.0" cy="109.0" r="1.2"/>
      <circle cx="199.0" cy="109.0" r="1.2"/>
      <circle cx="206.0" cy="109.0" r="1.2"/>
      <circle cx="213.0" cy="109.0" r="1.2"/>
      <circle cx="48.5" cy="116.0" r="1.2"/>
      <circle cx="55.5" cy="116.0" r="1.2"/>
      <circle cx="62.5" cy="116.0" r="1.2"/>
      <circle cx="69.5" cy="116.0" r="1.2"/>
      <circle cx="76.5" cy="116.0" r="1.2"/>
      <circle cx="83.5" cy="116.0" r="1.2"/>
      <circle cx="90.5" cy="116.0" r="1.2"/>
      <circle cx="97.5" cy="116.0" r="1.2"/>
      <circle cx="104.5" cy="116.0" r="1.2"/>
      <circle cx="111.5" cy="116.0" r="1.2"/>
      <circle cx="118.5" cy="116.0" r="1.2"/>
      <circle cx="125.5" cy="116.0" r="1.2"/>
      <circle cx="132.5" cy="116.0" r="1.2"/>
      <circle cx="139.5" cy="116.0" r="1.2"/>
      <circle cx="146.5" cy="116.0" r="1.2"/>
      <circle cx="153.5" cy="116.0" r="1.2"/>
      <circle cx="160.5" cy="116.0" r="1.2"/>
      <circle cx="167.5" cy="116.0" r="1.2"/>
      <circle cx="174.5" cy="116.0" r="1.2"/>
      <circle cx="181.5" cy="116.0" r="1.2"/>
      <circle cx="188.5" cy="116.0" r="1.2"/>
      <circle cx="195.5" cy="116.0" r="1.2"/>
      <circle cx="202.5" cy="116.0" r="1.2"/>
      <circle cx="209.5" cy="116.0" r="1.2"/>
      <circle cx="216.5" cy="116.0" r="1.2"/>
      <circle cx="45.0" cy="123.0" r="1.2"/>
      <circle cx="52.0" cy="123.0" r="1.2"/>
      <circle cx="59.0" cy="123.0" r="1.2"/>
      <circle cx="66.0" cy="123.0" r="1.2"/>
      <circle cx="73.0" cy="123.0" r="1.2"/>
      <circle cx="80.0" cy="123.0" r="1.2"/>
      <circle cx="87.0" cy="123.0" r="1.2"/>
      <circle cx="94.0" cy="123.0" r="1.2"/>
      <circle cx="101.0" cy="123.0" r="1.2"/>
      <circle cx="108.0" cy="123.0" r="1.2"/>
      <circle cx="115.0" cy="123.0" r="1.2"/>
      <circle cx="122.0" cy="123.0" r="1.2"/>
      <circle cx="129.0" cy="123.0" r="1.2"/>
      <circle cx="136.0" cy="123.0" r="1.2"/>
      <circle cx="143.0" cy="123.0" r="1.2"/>
      <circle cx="150.0" cy="123.0" r="1.2"/>
      <circle cx="157.0" cy="123.0" r="1.2"/>
      <circle cx="164.0" cy="123.0" r="1.2"/>
      <circle cx="171.0" cy="123.0" r="1.2"/>
      <circle cx="178.0" cy="123.0" r="1.2"/>
      <circle cx="185.0" cy="123.0" r="1.2"/>
      <circle cx="192.0" cy="123.0" r="1.2"/>
      <circle cx="199.0" cy="123.0" r="1.2"/>
      <circle cx="206.0" cy="123.0" r="1.2"/>
      <circle cx="213.0" cy="123.0" r="1.2"/>
      <circle cx="48.5" cy="130.0" r="1.2"/>
      <circle cx="55.5" cy="130.0" r="1.2"/>
      <circle cx="62.5" cy="130.0" r="1.2"/>
      <circle cx="69.5" cy="130.0" r="1.2"/>
      <circle cx="76.5" cy="130.0" r="1.2"/>
      <circle cx="83.5" cy="130.0" r="1.2"/>
      <circle cx="90.5" cy="130.0" r="1.2"/>
      <circle cx="97.5" cy="130.0" r="1.2"/>
      <circle cx="104.5" cy="130.0" r="1.2"/>
      <circle cx="111.5" cy="130.0" r="1.2"/>
      <circle cx="118.5" cy="130.0" r="1.2"/>
      <circle cx="125.5" cy="130.0" r="1.2"/>
      <circle cx="132.5" cy="130.0" r="1.2"/>
      <circle cx="139.5" cy="130.0" r="1.2"/>
      <circle cx="146.5" cy="130.0" r="1.2"/>
      <circle cx="153.5" cy="130.0" r="1.2"/>
      <circle cx="160.5" cy="130.0" r="1.2"/>
      <circle cx="167.5" cy="130.0" r="1.2"/>
      <circle cx="174.5" cy="130.0" r="1.2"/>
      <circle cx="181.5" cy="130.0" r="1.2"/>
      <circle cx="188.5" cy="130.0" r="1.2"/>
      <circle cx="195.5" cy="130.0" r="1.2"/>
      <circle cx="202.5" cy="130.0" r="1.2"/>
      <circle cx="209.5" cy="130.0" r="1.2"/>
      <circle cx="216.5" cy="130.0" r="1.2"/>
      <circle cx="45.0" cy="137.0" r="1.2"/>
      <circle cx="52.0" cy="137.0" r="1.2"/>
      <circle cx="59.0" cy="137.0" r="1.2"/>
      <circle cx="66.0" cy="137.0" r="1.2"/>
      <circle cx="73.0" cy="137.0" r="1.2"/>
      <circle cx="80.0" cy="137.0" r="1.2"/>
      <circle cx="87.0" cy="137.0" r="1.2"/>
      <circle cx="94.0" cy="137.0" r="1.2"/>
      <circle cx="101.0" cy="137.0" r="1.2"/>
      <circle cx="108.0" cy="137.0" r="1.2"/>
      <circle cx="115.0" cy="137.0" r="1.2"/>
      <circle cx="122.0" cy="137.0" r="1.2"/>
      <circle cx="129.0" cy="137.0" r="1.2"/>
      <circle cx="136.0" cy="137.0" r="1.2"/>
      <circle cx="143.0" cy="137.0" r="1.2"/>
      <circle cx="150.0" cy="137.0" r="1.2"/>
      <circle cx="157.0" cy="137.0" r="1.2"/>
      <circle cx="164.0" cy="137.0" r="1.2"/>
      <circle cx="171.0" cy="137.0" r="1.2"/>
      <circle cx="178.0" cy="137.0" r="1.2"/>
      <circle cx="185.0" cy="137.0" r="1.2"/>
      <circle cx="192.0" cy="137.0" r="1.2"/>
      <circle cx="199.0" cy="137.0" r="1.2"/>
      <circle cx="206.0" cy="137.0" r="1.2"/>
      <circle cx="213.0" cy="137.0" r="1.2"/>
      <circle cx="48.5" cy="144.0" r="1.2"/>
      <circle cx="55.5" cy="144.0" r="1.2"/>
      <circle cx="62.5" cy="144.0" r="1.2"/>
      <circle cx="69.5" cy="144.0" r="1.2"/>
      <circle cx="76.5" cy="144.0" r="1.2"/>
      <circle cx="83.5" cy="144.0" r="1.2"/>
      <circle cx="90.5" cy="144.0" r="1.2"/>
      <circle cx="97.5" cy="144.0" r="1.2"/>
      <circle cx="104.5" cy="144.0" r="1.2"/>
      <circle cx="111.5" cy="144.0" r="1.2"/>
      <circle cx="118.5" cy="144.0" r="1.2"/>
      <circle cx="125.5" cy="144.0" r="1.2"/>
      <circle cx="132.5" cy="144.0" r="1.2"/>
      <circle cx="139.5" cy="144.0" r="1.2"/>
      <circle cx="146.5" cy="144.0" r="1.2"/>
      <circle cx="153.5" cy="144.0" r="1.2"/>
      <circle cx="160.5" cy="144.0" r="1.2"/>
      <circle cx="167.5" cy="144.0" r="1.2"/>
      <circle cx="174.5" cy="144.0" r="1.2"/>
      <circle cx="181.5" cy="144.0" r="1.2"/>
      <circle cx="188.5" cy="144.0" r="1.2"/>
      <circle cx="195.5" cy="144.0" r="1.2"/>
      <circle cx="202.5" cy="144.0" r="1.2"/>
      <circle cx="209.5" cy="144.0" r="1.2"/>
      <circle cx="216.5" cy="144.0" r="1.2"/>
    </g>
  </g>
  <path fill="#ffffff" d="M71 169C96 150 144 147 174 163C200 177 196 205 166 215C132 226 75 219 57 197C48 186 55 177 71 169Z"/>
  <g clip-path="url(#colapis-mono-white-inner-baseClip)" opacity="0.43">
    <g fill="#000000">
      <circle cx="57.0" cy="155.0" r="1"/>
      <circle cx="64.0" cy="155.0" r="1"/>
      <circle cx="71.0" cy="155.0" r="1"/>
      <circle cx="78.0" cy="155.0" r="1"/>
      <circle cx="85.0" cy="155.0" r="1"/>
      <circle cx="92.0" cy="155.0" r="1"/>
      <circle cx="99.0" cy="155.0" r="1"/>
      <circle cx="106.0" cy="155.0" r="1"/>
      <circle cx="113.0" cy="155.0" r="1"/>
      <circle cx="120.0" cy="155.0" r="1"/>
      <circle cx="127.0" cy="155.0" r="1"/>
      <circle cx="134.0" cy="155.0" r="1"/>
      <circle cx="141.0" cy="155.0" r="1"/>
      <circle cx="148.0" cy="155.0" r="1"/>
      <circle cx="155.0" cy="155.0" r="1"/>
      <circle cx="162.0" cy="155.0" r="1"/>
      <circle cx="169.0" cy="155.0" r="1"/>
      <circle cx="176.0" cy="155.0" r="1"/>
      <circle cx="183.0" cy="155.0" r="1"/>
      <circle cx="60.5" cy="162.0" r="1"/>
      <circle cx="67.5" cy="162.0" r="1"/>
      <circle cx="74.5" cy="162.0" r="1"/>
      <circle cx="81.5" cy="162.0" r="1"/>
      <circle cx="88.5" cy="162.0" r="1"/>
      <circle cx="95.5" cy="162.0" r="1"/>
      <circle cx="102.5" cy="162.0" r="1"/>
      <circle cx="109.5" cy="162.0" r="1"/>
      <circle cx="116.5" cy="162.0" r="1"/>
      <circle cx="123.5" cy="162.0" r="1"/>
      <circle cx="130.5" cy="162.0" r="1"/>
      <circle cx="137.5" cy="162.0" r="1"/>
      <circle cx="144.5" cy="162.0" r="1"/>
      <circle cx="151.5" cy="162.0" r="1"/>
      <circle cx="158.5" cy="162.0" r="1"/>
      <circle cx="165.5" cy="162.0" r="1"/>
      <circle cx="172.5" cy="162.0" r="1"/>
      <circle cx="179.5" cy="162.0" r="1"/>
      <circle cx="186.5" cy="162.0" r="1"/>
      <circle cx="57.0" cy="169.0" r="1"/>
      <circle cx="64.0" cy="169.0" r="1"/>
      <circle cx="71.0" cy="169.0" r="1"/>
      <circle cx="78.0" cy="169.0" r="1"/>
      <circle cx="85.0" cy="169.0" r="1"/>
      <circle cx="92.0" cy="169.0" r="1"/>
      <circle cx="99.0" cy="169.0" r="1"/>
      <circle cx="106.0" cy="169.0" r="1"/>
      <circle cx="113.0" cy="169.0" r="1"/>
      <circle cx="120.0" cy="169.0" r="1"/>
      <circle cx="127.0" cy="169.0" r="1"/>
      <circle cx="134.0" cy="169.0" r="1"/>
      <circle cx="141.0" cy="169.0" r="1"/>
      <circle cx="148.0" cy="169.0" r="1"/>
      <circle cx="155.0" cy="169.0" r="1"/>
      <circle cx="162.0" cy="169.0" r="1"/>
      <circle cx="169.0" cy="169.0" r="1"/>
      <circle cx="176.0" cy="169.0" r="1"/>
      <circle cx="183.0" cy="169.0" r="1"/>
      <circle cx="60.5" cy="176.0" r="1"/>
      <circle cx="67.5" cy="176.0" r="1"/>
      <circle cx="74.5" cy="176.0" r="1"/>
      <circle cx="81.5" cy="176.0" r="1"/>
      <circle cx="88.5" cy="176.0" r="1"/>
      <circle cx="95.5" cy="176.0" r="1"/>
      <circle cx="102.5" cy="176.0" r="1"/>
      <circle cx="109.5" cy="176.0" r="1"/>
      <circle cx="116.5" cy="176.0" r="1"/>
      <circle cx="123.5" cy="176.0" r="1"/>
      <circle cx="130.5" cy="176.0" r="1"/>
      <circle cx="137.5" cy="176.0" r="1"/>
      <circle cx="144.5" cy="176.0" r="1"/>
      <circle cx="151.5" cy="176.0" r="1"/>
      <circle cx="158.5" cy="176.0" r="1"/>
      <circle cx="165.5" cy="176.0" r="1"/>
      <circle cx="172.5" cy="176.0" r="1"/>
      <circle cx="179.5" cy="176.0" r="1"/>
      <circle cx="186.5" cy="176.0" r="1"/>
      <circle cx="57.0" cy="183.0" r="1"/>
      <circle cx="64.0" cy="183.0" r="1"/>
      <circle cx="71.0" cy="183.0" r="1"/>
      <circle cx="78.0" cy="183.0" r="1"/>
      <circle cx="85.0" cy="183.0" r="1"/>
      <circle cx="92.0" cy="183.0" r="1"/>
      <circle cx="99.0" cy="183.0" r="1"/>
      <circle cx="106.0" cy="183.0" r="1"/>
      <circle cx="113.0" cy="183.0" r="1"/>
      <circle cx="120.0" cy="183.0" r="1"/>
      <circle cx="127.0" cy="183.0" r="1"/>
      <circle cx="134.0" cy="183.0" r="1"/>
      <circle cx="141.0" cy="183.0" r="1"/>
      <circle cx="148.0" cy="183.0" r="1"/>
      <circle cx="155.0" cy="183.0" r="1"/>
      <circle cx="162.0" cy="183.0" r="1"/>
      <circle cx="169.0" cy="183.0" r="1"/>
      <circle cx="176.0" cy="183.0" r="1"/>
      <circle cx="183.0" cy="183.0" r="1"/>
      <circle cx="60.5" cy="190.0" r="1"/>
      <circle cx="67.5" cy="190.0" r="1"/>
      <circle cx="74.5" cy="190.0" r="1"/>
      <circle cx="81.5" cy="190.0" r="1"/>
      <circle cx="88.5" cy="190.0" r="1"/>
      <circle cx="95.5" cy="190.0" r="1"/>
      <circle cx="102.5" cy="190.0" r="1"/>
      <circle cx="109.5" cy="190.0" r="1"/>
      <circle cx="116.5" cy="190.0" r="1"/>
      <circle cx="123.5" cy="190.0" r="1"/>
      <circle cx="130.5" cy="190.0" r="1"/>
      <circle cx="137.5" cy="190.0" r="1"/>
      <circle cx="144.5" cy="190.0" r="1"/>
      <circle cx="151.5" cy="190.0" r="1"/>
      <circle cx="158.5" cy="190.0" r="1"/>
      <circle cx="165.5" cy="190.0" r="1"/>
      <circle cx="172.5" cy="190.0" r="1"/>
      <circle cx="179.5" cy="190.0" r="1"/>
      <circle cx="186.5" cy="190.0" r="1"/>
      <circle cx="57.0" cy="197.0" r="1"/>
      <circle cx="64.0" cy="197.0" r="1"/>
      <circle cx="71.0" cy="197.0" r="1"/>
      <circle cx="78.0" cy="197.0" r="1"/>
      <circle cx="85.0" cy="197.0" r="1"/>
      <circle cx="92.0" cy="197.0" r="1"/>
      <circle cx="99.0" cy="197.0" r="1"/>
      <circle cx="106.0" cy="197.0" r="1"/>
      <circle cx="113.0" cy="197.0" r="1"/>
      <circle cx="120.0" cy="197.0" r="1"/>
      <circle cx="127.0" cy="197.0" r="1"/>
      <circle cx="134.0" cy="197.0" r="1"/>
      <circle cx="141.0" cy="197.0" r="1"/>
      <circle cx="148.0" cy="197.0" r="1"/>
      <circle cx="155.0" cy="197.0" r="1"/>
      <circle cx="162.0" cy="197.0" r="1"/>
      <circle cx="169.0" cy="197.0" r="1"/>
      <circle cx="176.0" cy="197.0" r="1"/>
      <circle cx="183.0" cy="197.0" r="1"/>
      <circle cx="60.5" cy="204.0" r="1"/>
      <circle cx="67.5" cy="204.0" r="1"/>
      <circle cx="74.5" cy="204.0" r="1"/>
      <circle cx="81.5" cy="204.0" r="1"/>
      <circle cx="88.5" cy="204.0" r="1"/>
      <circle cx="95.5" cy="204.0" r="1"/>
      <circle cx="102.5" cy="204.0" r="1"/>
      <circle cx="109.5" cy="204.0" r="1"/>
      <circle cx="116.5" cy="204.0" r="1"/>
      <circle cx="123.5" cy="204.0" r="1"/>
      <circle cx="130.5" cy="204.0" r="1"/>
      <circle cx="137.5" cy="204.0" r="1"/>
      <circle cx="144.5" cy="204.0" r="1"/>
      <circle cx="151.5" cy="204.0" r="1"/>
      <circle cx="158.5" cy="204.0" r="1"/>
      <circle cx="165.5" cy="204.0" r="1"/>
      <circle cx="172.5" cy="204.0" r="1"/>
      <circle cx="179.5" cy="204.0" r="1"/>
      <circle cx="186.5" cy="204.0" r="1"/>
      <circle cx="57.0" cy="211.0" r="1"/>
      <circle cx="64.0" cy="211.0" r="1"/>
      <circle cx="71.0" cy="211.0" r="1"/>
      <circle cx="78.0" cy="211.0" r="1"/>
      <circle cx="85.0" cy="211.0" r="1"/>
      <circle cx="92.0" cy="211.0" r="1"/>
      <circle cx="99.0" cy="211.0" r="1"/>
      <circle cx="106.0" cy="211.0" r="1"/>
      <circle cx="113.0" cy="211.0" r="1"/>
      <circle cx="120.0" cy="211.0" r="1"/>
      <circle cx="127.0" cy="211.0" r="1"/>
      <circle cx="134.0" cy="211.0" r="1"/>
      <circle cx="141.0" cy="211.0" r="1"/>
      <circle cx="148.0" cy="211.0" r="1"/>
      <circle cx="155.0" cy="211.0" r="1"/>
      <circle cx="162.0" cy="211.0" r="1"/>
      <circle cx="169.0" cy="211.0" r="1"/>
      <circle cx="176.0" cy="211.0" r="1"/>
      <circle cx="183.0" cy="211.0" r="1"/>
    </g>
  </g>
  <path fill="#ffffff" opacity="0.4" d="M95 184C113 177 146 178 163 187C143 190 115 190 95 184Z"/>


  </g>
  <text x="350" y="126" fill="#ffffff" font-family="Cormorant Garamond, Didot, Georgia, serif" font-size="72" letter-spacing="9" font-weight="600">COLAPIS</text>
  <path d="M354 151H754" stroke="#ffffff" stroke-width="1.4" opacity="0.52"/>
  
</svg>
